<mxfile host="app.diagrams.net" agent="Mozilla/5.0 (Windows NT 10.0; Win64; x64; rv:131.0) Gecko/20100101 Firefox/131.0" version="24.7.17">
  <diagram name="Page-1" id="irMvVU7EOaaapZmoeU0T">
    <mxGraphModel dx="1562" dy="818" grid="1" gridSize="10" guides="1" tooltips="1" connect="1" arrows="1" fold="1" page="1" pageScale="1" pageWidth="1169" pageHeight="827" math="0" shadow="0">
      <root>
        <mxCell id="0" />
        <mxCell id="1" parent="0" />
        <mxCell id="OyEkZRI3-20rRGDWFfCl-2" value="NumEntreprise" style="text;html=1;align=center;verticalAlign=middle;resizable=0;points=[];autosize=1;strokeColor=none;fillColor=none;" parent="1" vertex="1">
          <mxGeometry x="250" y="40" width="100" height="30" as="geometry" />
        </mxCell>
        <mxCell id="OyEkZRI3-20rRGDWFfCl-3" value="NomEntreprise" style="text;html=1;align=center;verticalAlign=middle;resizable=0;points=[];autosize=1;strokeColor=none;fillColor=none;" parent="1" vertex="1">
          <mxGeometry x="90" y="40" width="100" height="30" as="geometry" />
        </mxCell>
        <mxCell id="OyEkZRI3-20rRGDWFfCl-6" value="ActivitÃ©" style="text;html=1;align=center;verticalAlign=middle;resizable=0;points=[];autosize=1;strokeColor=none;fillColor=none;" parent="1" vertex="1">
          <mxGeometry x="125" y="120" width="60" height="30" as="geometry" />
        </mxCell>
        <mxCell id="OyEkZRI3-20rRGDWFfCl-7" value="TelephoneEntreprise" style="text;html=1;align=center;verticalAlign=middle;resizable=0;points=[];autosize=1;strokeColor=none;fillColor=none;" parent="1" vertex="1">
          <mxGeometry x="235" y="160" width="130" height="30" as="geometry" />
        </mxCell>
        <mxCell id="OyEkZRI3-20rRGDWFfCl-8" value="Cliente" style="text;html=1;align=center;verticalAlign=middle;resizable=0;points=[];autosize=1;strokeColor=none;fillColor=none;" parent="1" vertex="1">
          <mxGeometry x="400" y="40" width="60" height="30" as="geometry" />
        </mxCell>
        <mxCell id="OyEkZRI3-20rRGDWFfCl-11" value="" style="endArrow=classic;html=1;rounded=0;" parent="1" source="OyEkZRI3-20rRGDWFfCl-2" target="OyEkZRI3-20rRGDWFfCl-3" edge="1">
          <mxGeometry width="50" height="50" relative="1" as="geometry">
            <mxPoint x="330" y="385" as="sourcePoint" />
            <mxPoint x="380" y="335" as="targetPoint" />
          </mxGeometry>
        </mxCell>
        <mxCell id="OyEkZRI3-20rRGDWFfCl-12" value="" style="endArrow=classic;html=1;rounded=0;" parent="1" source="OyEkZRI3-20rRGDWFfCl-2" target="OyEkZRI3-20rRGDWFfCl-6" edge="1">
          <mxGeometry width="50" height="50" relative="1" as="geometry">
            <mxPoint x="330" y="385" as="sourcePoint" />
            <mxPoint x="380" y="335" as="targetPoint" />
          </mxGeometry>
        </mxCell>
        <mxCell id="OyEkZRI3-20rRGDWFfCl-13" value="" style="endArrow=classic;html=1;rounded=0;" parent="1" source="OyEkZRI3-20rRGDWFfCl-2" target="OyEkZRI3-20rRGDWFfCl-7" edge="1">
          <mxGeometry width="50" height="50" relative="1" as="geometry">
            <mxPoint x="40" y="375" as="sourcePoint" />
            <mxPoint x="90" y="325" as="targetPoint" />
          </mxGeometry>
        </mxCell>
        <mxCell id="OyEkZRI3-20rRGDWFfCl-14" value="" style="endArrow=classic;html=1;rounded=0;" parent="1" source="OyEkZRI3-20rRGDWFfCl-2" target="OyEkZRI3-20rRGDWFfCl-8" edge="1">
          <mxGeometry width="50" height="50" relative="1" as="geometry">
            <mxPoint x="40" y="235" as="sourcePoint" />
            <mxPoint x="40" y="385" as="targetPoint" />
          </mxGeometry>
        </mxCell>
        <mxCell id="OyEkZRI3-20rRGDWFfCl-15" value="&lt;div&gt;NumCandidat&lt;/div&gt;" style="text;html=1;align=center;verticalAlign=middle;resizable=0;points=[];autosize=1;strokeColor=none;fillColor=none;" parent="1" vertex="1">
          <mxGeometry x="640" y="504" width="90" height="30" as="geometry" />
        </mxCell>
        <mxCell id="OyEkZRI3-20rRGDWFfCl-16" value="&lt;div&gt;NomCandidat&lt;/div&gt;" style="text;html=1;align=center;verticalAlign=middle;resizable=0;points=[];autosize=1;strokeColor=none;fillColor=none;" parent="1" vertex="1">
          <mxGeometry x="875" y="400" width="90" height="30" as="geometry" />
        </mxCell>
        <mxCell id="OyEkZRI3-20rRGDWFfCl-17" value="PrenomCandidat" style="text;html=1;align=center;verticalAlign=middle;resizable=0;points=[];autosize=1;strokeColor=none;fillColor=none;" parent="1" vertex="1">
          <mxGeometry x="910" y="444" width="110" height="30" as="geometry" />
        </mxCell>
        <mxCell id="OyEkZRI3-20rRGDWFfCl-18" value="TelephoneCandidat" style="text;html=1;align=center;verticalAlign=middle;resizable=0;points=[];autosize=1;strokeColor=none;fillColor=none;" parent="1" vertex="1">
          <mxGeometry x="917.5" y="494" width="120" height="30" as="geometry" />
        </mxCell>
        <mxCell id="OyEkZRI3-20rRGDWFfCl-19" value="MailCandidat" style="text;html=1;align=center;verticalAlign=middle;resizable=0;points=[];autosize=1;strokeColor=none;fillColor=none;" parent="1" vertex="1">
          <mxGeometry x="940" y="534" width="90" height="30" as="geometry" />
        </mxCell>
        <mxCell id="OyEkZRI3-20rRGDWFfCl-20" value="SituationFamiliale" style="text;html=1;align=center;verticalAlign=middle;resizable=0;points=[];autosize=1;strokeColor=none;fillColor=none;" parent="1" vertex="1">
          <mxGeometry x="992.5" y="564" width="110" height="30" as="geometry" />
        </mxCell>
        <mxCell id="OyEkZRI3-20rRGDWFfCl-22" value="SituationPro" style="text;html=1;align=center;verticalAlign=middle;resizable=0;points=[];autosize=1;strokeColor=none;fillColor=none;" parent="1" vertex="1">
          <mxGeometry x="940" y="594" width="90" height="30" as="geometry" />
        </mxCell>
        <mxCell id="OyEkZRI3-20rRGDWFfCl-23" value="RemunerationSouhaitee" style="text;html=1;align=center;verticalAlign=middle;resizable=0;points=[];autosize=1;strokeColor=none;fillColor=none;" parent="1" vertex="1">
          <mxGeometry x="902.5" y="634" width="150" height="30" as="geometry" />
        </mxCell>
        <mxCell id="OyEkZRI3-20rRGDWFfCl-25" value="" style="endArrow=classic;html=1;rounded=0;" parent="1" source="OyEkZRI3-20rRGDWFfCl-15" target="OyEkZRI3-20rRGDWFfCl-16" edge="1">
          <mxGeometry width="50" height="50" relative="1" as="geometry">
            <mxPoint x="1170" y="514" as="sourcePoint" />
            <mxPoint x="1220" y="464" as="targetPoint" />
          </mxGeometry>
        </mxCell>
        <mxCell id="OyEkZRI3-20rRGDWFfCl-26" value="" style="endArrow=classic;html=1;rounded=0;" parent="1" source="OyEkZRI3-20rRGDWFfCl-15" target="OyEkZRI3-20rRGDWFfCl-17" edge="1">
          <mxGeometry width="50" height="50" relative="1" as="geometry">
            <mxPoint x="894" y="554" as="sourcePoint" />
            <mxPoint x="920" y="644" as="targetPoint" />
          </mxGeometry>
        </mxCell>
        <mxCell id="OyEkZRI3-20rRGDWFfCl-27" value="" style="endArrow=classic;html=1;rounded=0;" parent="1" source="OyEkZRI3-20rRGDWFfCl-15" target="OyEkZRI3-20rRGDWFfCl-18" edge="1">
          <mxGeometry width="50" height="50" relative="1" as="geometry">
            <mxPoint x="1170" y="514" as="sourcePoint" />
            <mxPoint x="1220" y="464" as="targetPoint" />
          </mxGeometry>
        </mxCell>
        <mxCell id="OyEkZRI3-20rRGDWFfCl-28" value="" style="endArrow=classic;html=1;rounded=0;" parent="1" source="OyEkZRI3-20rRGDWFfCl-15" target="OyEkZRI3-20rRGDWFfCl-19" edge="1">
          <mxGeometry width="50" height="50" relative="1" as="geometry">
            <mxPoint x="1170" y="514" as="sourcePoint" />
            <mxPoint x="1220" y="464" as="targetPoint" />
          </mxGeometry>
        </mxCell>
        <mxCell id="OyEkZRI3-20rRGDWFfCl-29" value="" style="endArrow=classic;html=1;rounded=0;" parent="1" source="OyEkZRI3-20rRGDWFfCl-15" target="OyEkZRI3-20rRGDWFfCl-20" edge="1">
          <mxGeometry width="50" height="50" relative="1" as="geometry">
            <mxPoint x="1170" y="514" as="sourcePoint" />
            <mxPoint x="1220" y="464" as="targetPoint" />
          </mxGeometry>
        </mxCell>
        <mxCell id="OyEkZRI3-20rRGDWFfCl-31" value="" style="endArrow=classic;html=1;rounded=0;" parent="1" source="OyEkZRI3-20rRGDWFfCl-15" target="OyEkZRI3-20rRGDWFfCl-22" edge="1">
          <mxGeometry width="50" height="50" relative="1" as="geometry">
            <mxPoint x="1170" y="514" as="sourcePoint" />
            <mxPoint x="1220" y="464" as="targetPoint" />
          </mxGeometry>
        </mxCell>
        <mxCell id="OyEkZRI3-20rRGDWFfCl-32" value="" style="endArrow=classic;html=1;rounded=0;" parent="1" source="OyEkZRI3-20rRGDWFfCl-15" target="OyEkZRI3-20rRGDWFfCl-23" edge="1">
          <mxGeometry width="50" height="50" relative="1" as="geometry">
            <mxPoint x="1170" y="514" as="sourcePoint" />
            <mxPoint x="1220" y="464" as="targetPoint" />
          </mxGeometry>
        </mxCell>
        <mxCell id="OyEkZRI3-20rRGDWFfCl-33" value="MailEntreprise" style="text;html=1;align=center;verticalAlign=middle;resizable=0;points=[];autosize=1;strokeColor=none;fillColor=none;" parent="1" vertex="1">
          <mxGeometry x="130" y="178" width="100" height="30" as="geometry" />
        </mxCell>
        <mxCell id="OyEkZRI3-20rRGDWFfCl-34" value="" style="endArrow=classic;html=1;rounded=0;" parent="1" source="OyEkZRI3-20rRGDWFfCl-2" target="OyEkZRI3-20rRGDWFfCl-33" edge="1">
          <mxGeometry width="50" height="50" relative="1" as="geometry">
            <mxPoint x="330" y="335" as="sourcePoint" />
            <mxPoint x="380" y="285" as="targetPoint" />
          </mxGeometry>
        </mxCell>
        <mxCell id="OyEkZRI3-20rRGDWFfCl-35" value="&lt;div&gt;NumEtudiant&lt;/div&gt;" style="text;html=1;align=center;verticalAlign=middle;resizable=0;points=[];autosize=1;strokeColor=none;fillColor=none;" parent="1" vertex="1">
          <mxGeometry x="282.5" y="602" width="90" height="30" as="geometry" />
        </mxCell>
        <mxCell id="OyEkZRI3-20rRGDWFfCl-36" value="NomEtudiant" style="text;html=1;align=center;verticalAlign=middle;resizable=0;points=[];autosize=1;strokeColor=none;fillColor=none;" parent="1" vertex="1">
          <mxGeometry x="90" y="550" width="90" height="30" as="geometry" />
        </mxCell>
        <mxCell id="OyEkZRI3-20rRGDWFfCl-37" value="PrenomEtudiant" style="text;html=1;align=center;verticalAlign=middle;resizable=0;points=[];autosize=1;strokeColor=none;fillColor=none;" parent="1" vertex="1">
          <mxGeometry x="75" y="590" width="110" height="30" as="geometry" />
        </mxCell>
        <mxCell id="OyEkZRI3-20rRGDWFfCl-38" value="TelephoneEtudiant" style="text;html=1;align=center;verticalAlign=middle;resizable=0;points=[];autosize=1;strokeColor=none;fillColor=none;" parent="1" vertex="1">
          <mxGeometry x="80" y="620" width="120" height="30" as="geometry" />
        </mxCell>
        <mxCell id="OyEkZRI3-20rRGDWFfCl-39" value="MailEtudiant" style="text;html=1;align=center;verticalAlign=middle;resizable=0;points=[];autosize=1;strokeColor=none;fillColor=none;" parent="1" vertex="1">
          <mxGeometry x="85" y="650" width="90" height="30" as="geometry" />
        </mxCell>
        <mxCell id="OyEkZRI3-20rRGDWFfCl-42" value="" style="endArrow=classic;html=1;rounded=0;" parent="1" source="OyEkZRI3-20rRGDWFfCl-35" target="OyEkZRI3-20rRGDWFfCl-36" edge="1">
          <mxGeometry width="50" height="50" relative="1" as="geometry">
            <mxPoint x="262.5" y="732" as="sourcePoint" />
            <mxPoint x="312.5" y="682" as="targetPoint" />
          </mxGeometry>
        </mxCell>
        <mxCell id="OyEkZRI3-20rRGDWFfCl-43" value="" style="endArrow=classic;html=1;rounded=0;" parent="1" source="OyEkZRI3-20rRGDWFfCl-35" target="OyEkZRI3-20rRGDWFfCl-37" edge="1">
          <mxGeometry width="50" height="50" relative="1" as="geometry">
            <mxPoint x="262.5" y="732" as="sourcePoint" />
            <mxPoint x="185" y="608.3417721518988" as="targetPoint" />
          </mxGeometry>
        </mxCell>
        <mxCell id="OyEkZRI3-20rRGDWFfCl-44" value="" style="endArrow=classic;html=1;rounded=0;" parent="1" source="OyEkZRI3-20rRGDWFfCl-35" target="OyEkZRI3-20rRGDWFfCl-38" edge="1">
          <mxGeometry width="50" height="50" relative="1" as="geometry">
            <mxPoint x="386.5" y="746" as="sourcePoint" />
            <mxPoint x="457.5" y="730" as="targetPoint" />
          </mxGeometry>
        </mxCell>
        <mxCell id="OyEkZRI3-20rRGDWFfCl-45" value="" style="endArrow=classic;html=1;rounded=0;" parent="1" source="OyEkZRI3-20rRGDWFfCl-35" target="OyEkZRI3-20rRGDWFfCl-39" edge="1">
          <mxGeometry width="50" height="50" relative="1" as="geometry">
            <mxPoint x="396.5" y="756" as="sourcePoint" />
            <mxPoint x="467.5" y="740" as="targetPoint" />
          </mxGeometry>
        </mxCell>
        <mxCell id="OyEkZRI3-20rRGDWFfCl-47" value="NumInstitut" style="text;html=1;align=center;verticalAlign=middle;resizable=0;points=[];autosize=1;strokeColor=none;fillColor=none;" parent="1" vertex="1">
          <mxGeometry x="260" y="420" width="80" height="30" as="geometry" />
        </mxCell>
        <mxCell id="292yDI0gEvVVNK8xWTtN-1" value="NomInstitut" style="text;html=1;align=center;verticalAlign=middle;resizable=0;points=[];autosize=1;strokeColor=none;fillColor=none;" vertex="1" parent="1">
          <mxGeometry x="90" y="352" width="80" height="30" as="geometry" />
        </mxCell>
        <mxCell id="292yDI0gEvVVNK8xWTtN-2" value="&lt;div&gt;AdresseInstitut&lt;/div&gt;" style="text;html=1;align=center;verticalAlign=middle;resizable=0;points=[];autosize=1;strokeColor=none;fillColor=none;" vertex="1" parent="1">
          <mxGeometry x="60" y="450" width="100" height="30" as="geometry" />
        </mxCell>
        <mxCell id="292yDI0gEvVVNK8xWTtN-3" value="&lt;div&gt;Archives&lt;/div&gt;" style="text;html=1;align=center;verticalAlign=middle;resizable=0;points=[];autosize=1;strokeColor=none;fillColor=none;" vertex="1" parent="1">
          <mxGeometry x="85" y="399" width="70" height="30" as="geometry" />
        </mxCell>
        <mxCell id="292yDI0gEvVVNK8xWTtN-6" value="NumMissions" style="text;html=1;align=center;verticalAlign=middle;resizable=0;points=[];autosize=1;strokeColor=none;fillColor=none;" vertex="1" parent="1">
          <mxGeometry x="385" y="208" width="90" height="30" as="geometry" />
        </mxCell>
        <mxCell id="292yDI0gEvVVNK8xWTtN-7" value="&lt;div&gt;DateDebut&lt;/div&gt;" style="text;html=1;align=center;verticalAlign=middle;resizable=0;points=[];autosize=1;strokeColor=none;fillColor=none;" vertex="1" parent="1">
          <mxGeometry x="545" y="148" width="80" height="30" as="geometry" />
        </mxCell>
        <mxCell id="292yDI0gEvVVNK8xWTtN-8" value="DateFin" style="text;html=1;align=center;verticalAlign=middle;resizable=0;points=[];autosize=1;strokeColor=none;fillColor=none;" vertex="1" parent="1">
          <mxGeometry x="542.5" y="208" width="60" height="30" as="geometry" />
        </mxCell>
        <mxCell id="292yDI0gEvVVNK8xWTtN-9" value="" style="endArrow=classic;html=1;rounded=0;" edge="1" parent="1" source="292yDI0gEvVVNK8xWTtN-6" target="292yDI0gEvVVNK8xWTtN-7">
          <mxGeometry width="50" height="50" relative="1" as="geometry">
            <mxPoint x="322.5" y="454" as="sourcePoint" />
            <mxPoint x="372.5" y="404" as="targetPoint" />
          </mxGeometry>
        </mxCell>
        <mxCell id="292yDI0gEvVVNK8xWTtN-10" value="" style="endArrow=classic;html=1;rounded=0;" edge="1" parent="1" source="292yDI0gEvVVNK8xWTtN-6" target="292yDI0gEvVVNK8xWTtN-8">
          <mxGeometry width="50" height="50" relative="1" as="geometry">
            <mxPoint x="322.5" y="454" as="sourcePoint" />
            <mxPoint x="372.5" y="404" as="targetPoint" />
          </mxGeometry>
        </mxCell>
        <mxCell id="292yDI0gEvVVNK8xWTtN-11" value="" style="endArrow=classic;html=1;rounded=0;" edge="1" parent="1" source="OyEkZRI3-20rRGDWFfCl-47" target="292yDI0gEvVVNK8xWTtN-1">
          <mxGeometry width="50" height="50" relative="1" as="geometry">
            <mxPoint x="617.5" y="240" as="sourcePoint" />
            <mxPoint x="667.5" y="190" as="targetPoint" />
          </mxGeometry>
        </mxCell>
        <mxCell id="292yDI0gEvVVNK8xWTtN-12" value="" style="endArrow=classic;html=1;rounded=0;" edge="1" parent="1" source="OyEkZRI3-20rRGDWFfCl-47" target="292yDI0gEvVVNK8xWTtN-2">
          <mxGeometry width="50" height="50" relative="1" as="geometry">
            <mxPoint x="617.5" y="240" as="sourcePoint" />
            <mxPoint x="667.5" y="190" as="targetPoint" />
          </mxGeometry>
        </mxCell>
        <mxCell id="292yDI0gEvVVNK8xWTtN-13" value="" style="endArrow=classic;html=1;rounded=0;" edge="1" parent="1" source="OyEkZRI3-20rRGDWFfCl-47" target="292yDI0gEvVVNK8xWTtN-3">
          <mxGeometry width="50" height="50" relative="1" as="geometry">
            <mxPoint x="617.5" y="240" as="sourcePoint" />
            <mxPoint x="667.5" y="190" as="targetPoint" />
          </mxGeometry>
        </mxCell>
        <mxCell id="292yDI0gEvVVNK8xWTtN-14" value="" style="endArrow=classic;html=1;rounded=0;" edge="1" parent="1" source="OyEkZRI3-20rRGDWFfCl-47" target="OyEkZRI3-20rRGDWFfCl-35">
          <mxGeometry width="50" height="50" relative="1" as="geometry">
            <mxPoint x="167.5" y="530" as="sourcePoint" />
            <mxPoint x="217.5" y="480" as="targetPoint" />
          </mxGeometry>
        </mxCell>
        <mxCell id="292yDI0gEvVVNK8xWTtN-18" value="Remuneration" style="text;html=1;align=center;verticalAlign=middle;resizable=0;points=[];autosize=1;strokeColor=none;fillColor=none;" vertex="1" parent="1">
          <mxGeometry x="522.5" y="100" width="100" height="30" as="geometry" />
        </mxCell>
        <mxCell id="292yDI0gEvVVNK8xWTtN-19" value="" style="endArrow=classic;html=1;rounded=0;" edge="1" parent="1" source="292yDI0gEvVVNK8xWTtN-6" target="292yDI0gEvVVNK8xWTtN-18">
          <mxGeometry width="50" height="50" relative="1" as="geometry">
            <mxPoint x="752.5" y="220" as="sourcePoint" />
            <mxPoint x="802.5" y="170" as="targetPoint" />
          </mxGeometry>
        </mxCell>
        <mxCell id="292yDI0gEvVVNK8xWTtN-23" value="" style="endArrow=classic;html=1;rounded=0;" edge="1" parent="1" source="OyEkZRI3-20rRGDWFfCl-2" target="292yDI0gEvVVNK8xWTtN-6">
          <mxGeometry width="50" height="50" relative="1" as="geometry">
            <mxPoint x="390" y="590" as="sourcePoint" />
            <mxPoint x="440" y="540" as="targetPoint" />
          </mxGeometry>
        </mxCell>
        <mxCell id="292yDI0gEvVVNK8xWTtN-24" value="Designation" style="text;html=1;align=center;verticalAlign=middle;resizable=0;points=[];autosize=1;strokeColor=none;fillColor=none;" vertex="1" parent="1">
          <mxGeometry x="517.5" y="260" width="90" height="30" as="geometry" />
        </mxCell>
        <mxCell id="292yDI0gEvVVNK8xWTtN-25" value="" style="endArrow=classic;html=1;rounded=0;" edge="1" parent="1" source="292yDI0gEvVVNK8xWTtN-6" target="292yDI0gEvVVNK8xWTtN-24">
          <mxGeometry width="50" height="50" relative="1" as="geometry">
            <mxPoint x="390" y="500" as="sourcePoint" />
            <mxPoint x="440" y="450" as="targetPoint" />
          </mxGeometry>
        </mxCell>
        <mxCell id="292yDI0gEvVVNK8xWTtN-29" value="" style="endArrow=classic;html=1;rounded=0;" edge="1" parent="1" source="292yDI0gEvVVNK8xWTtN-6" target="292yDI0gEvVVNK8xWTtN-32">
          <mxGeometry width="50" height="50" relative="1" as="geometry">
            <mxPoint x="440" y="420" as="sourcePoint" />
            <mxPoint x="491.5" y="310" as="targetPoint" />
            <Array as="points" />
          </mxGeometry>
        </mxCell>
        <mxCell id="292yDI0gEvVVNK8xWTtN-30" value="" style="endArrow=classic;html=1;rounded=0;" edge="1" parent="1" source="OyEkZRI3-20rRGDWFfCl-15" target="292yDI0gEvVVNK8xWTtN-32">
          <mxGeometry width="50" height="50" relative="1" as="geometry">
            <mxPoint x="440" y="420" as="sourcePoint" />
            <mxPoint x="509.5689655172414" y="340" as="targetPoint" />
          </mxGeometry>
        </mxCell>
        <mxCell id="292yDI0gEvVVNK8xWTtN-31" value="" style="endArrow=classic;html=1;rounded=0;" edge="1" parent="1" source="OyEkZRI3-20rRGDWFfCl-35" target="292yDI0gEvVVNK8xWTtN-32">
          <mxGeometry width="50" height="50" relative="1" as="geometry">
            <mxPoint x="440" y="420" as="sourcePoint" />
            <mxPoint x="479.7368421052631" y="340" as="targetPoint" />
            <Array as="points" />
          </mxGeometry>
        </mxCell>
        <mxCell id="292yDI0gEvVVNK8xWTtN-32" value="" style="ellipse;whiteSpace=wrap;html=1;aspect=fixed;fillColor=#000000;fillStyle=solid;direction=south;" vertex="1" parent="1">
          <mxGeometry x="470" y="352" width="20" height="20" as="geometry" />
        </mxCell>
      </root>
    </mxGraphModel>
  </diagram>
</mxfile>
